<svg xmlns="http://www.w3.org/2000/svg" width="920" height="750" viewBox="0 0 920 750">
<style>text{font-family:-apple-system,BlinkMacSystemFont,"Segoe UI",sans-serif;fill:#253237} .muted{fill:#6b7a80;font-size:12px}</style>
<rect width="100%" height="100%" rx="18" fill="#fbfaf7"/>
<text x="28" y="34" font-size="20" font-weight="700">Engagement velocity — signal per day since publication (top 15)</text>
<text x="28" y="91" font-size="13">deepseek-ai/deepseek-harness [github]</text>
<rect x="470" y="73" width="380" height="22" rx="11" fill="#e8e2d6"/>
<rect x="470" y="73" width="380" height="22" rx="11" fill="#e07a5f"/>
<text x="900" y="91" text-anchor="end" font-size="13" font-weight="700">53,144/day</text>
<text x="28" y="135" font-size="13">【热门AI鉴定】DeepSeek Harness是什么？强在哪里？Harness实测效果 [bilibili]</text>
<rect x="470" y="117" width="380" height="22" rx="11" fill="#e8e2d6"/>
<rect x="470" y="117" width="75" height="22" rx="11" fill="#e07a5f"/>
<text x="900" y="135" text-anchor="end" font-size="13" font-weight="700">10,573/day</text>
<text x="28" y="179" font-size="13">DeepSeek @deepseek_ai DeepSeek Harness v0.1  [x]</text>
<rect x="470" y="161" width="380" height="22" rx="11" fill="#e8e2d6"/>
<rect x="470" y="161" width="72" height="22" rx="11" fill="#e07a5f"/>
<text x="900" y="179" text-anchor="end" font-size="13" font-weight="700">10,117/day</text>
<text x="28" y="223" font-size="13">anywhere-labs/deepseek-harness-desktop [github]</text>
<rect x="470" y="205" width="380" height="22" rx="11" fill="#e8e2d6"/>
<rect x="470" y="205" width="19" height="22" rx="11" fill="#e07a5f"/>
<text x="900" y="223" text-anchor="end" font-size="13" font-weight="700">2,708/day</text>
<text x="28" y="267" font-size="13">一个视频带你了解 DeepSeek新模型 + Harness ！｜ 赛博赵云，七进七出救 [bilibili]</text>
<rect x="470" y="249" width="380" height="22" rx="11" fill="#e8e2d6"/>
<rect x="470" y="249" width="15" height="22" rx="11" fill="#e07a5f"/>
<text x="900" y="267" text-anchor="end" font-size="13" font-weight="700">2,237/day</text>
<text x="28" y="311" font-size="13">awesome-dsh-plugin/awesome-dsh-plugin [github]</text>
<rect x="470" y="293" width="380" height="22" rx="11" fill="#e8e2d6"/>
<rect x="470" y="293" width="12" height="22" rx="11" fill="#e07a5f"/>
<text x="900" y="311" text-anchor="end" font-size="13" font-weight="700">1,695/day</text>
<text x="28" y="355" font-size="13">xiaobright/dsh-anchored-standard [github]</text>
<rect x="470" y="337" width="380" height="22" rx="11" fill="#e8e2d6"/>
<rect x="470" y="337" width="11" height="22" rx="11" fill="#e07a5f"/>
<text x="900" y="355" text-anchor="end" font-size="13" font-weight="700">1,553/day</text>
<text x="28" y="399" font-size="13">Tianyi Cui @tianyi · 13h Thank you! Pi is ma [x]</text>
<rect x="470" y="381" width="380" height="22" rx="11" fill="#e8e2d6"/>
<rect x="470" y="381" width="9" height="22" rx="11" fill="#e07a5f"/>
<text x="900" y="399" text-anchor="end" font-size="13" font-weight="700">1,380/day</text>
<text x="28" y="443" font-size="13">Pinned Tianyi Cui @tianyi · Aug 13 DeepSeek  [x]</text>
<rect x="470" y="425" width="380" height="22" rx="11" fill="#e8e2d6"/>
<rect x="470" y="425" width="8" height="22" rx="11" fill="#e07a5f"/>
<text x="900" y="443" text-anchor="end" font-size="13" font-weight="700">1,151/day</text>
<text x="28" y="487" font-size="13">Armin Ronacher ⇌ @mitsuhiko · 21h I don&#x27;t th [x]</text>
<rect x="470" y="469" width="380" height="22" rx="11" fill="#e8e2d6"/>
<rect x="470" y="469" width="8" height="22" rx="11" fill="#e07a5f"/>
<text x="900" y="487" text-anchor="end" font-size="13" font-weight="700">1,124/day</text>
<text x="28" y="531" font-size="13">ℏεsam @Hesamation · Aug 13 DeepSeek publishe [x]</text>
<rect x="470" y="513" width="380" height="22" rx="11" fill="#e8e2d6"/>
<rect x="470" y="513" width="7" height="22" rx="11" fill="#e07a5f"/>
<text x="900" y="531" text-anchor="end" font-size="13" font-weight="700">1,097/day</text>
<text x="28" y="575" font-size="13">nexu-io/open-design [github]</text>
<rect x="470" y="557" width="380" height="22" rx="11" fill="#e8e2d6"/>
<rect x="470" y="557" width="6" height="22" rx="11" fill="#e07a5f"/>
<text x="900" y="575" text-anchor="end" font-size="13" font-weight="700">975/day</text>
<text x="28" y="619" font-size="13">Graphify-Labs/graphify [github]</text>
<rect x="470" y="601" width="380" height="22" rx="11" fill="#e8e2d6"/>
<rect x="470" y="601" width="6" height="22" rx="11" fill="#e07a5f"/>
<text x="900" y="619" text-anchor="end" font-size="13" font-weight="700">948/day</text>
<text x="28" y="663" font-size="13">🚀实测DeepSeek Harness从基础到高级用法！WebUI远程控制、多模型接入、 [bilibili]</text>
<rect x="470" y="645" width="380" height="22" rx="11" fill="#e8e2d6"/>
<rect x="470" y="645" width="6" height="22" rx="11" fill="#e07a5f"/>
<text x="900" y="663" text-anchor="end" font-size="13" font-weight="700">843/day</text>
<text x="28" y="707" font-size="13">Tianyi Cui @tianyi · 13h 如果你人在杭州或周边，想给 DeepS [x]</text>
<rect x="470" y="689" width="380" height="22" rx="11" fill="#e8e2d6"/>
<rect x="470" y="689" width="5" height="22" rx="11" fill="#e07a5f"/>
<text x="900" y="707" text-anchor="end" font-size="13" font-weight="700">809/day</text>
</svg>
